<svg data-v-423bf9ae="" xmlns="http://www.w3.org/2000/svg" viewBox="0 0 664 90" class="iconLeft"><!----><!----><!----><g data-v-423bf9ae="" id="031e9222-264c-4083-a627-76166b249776" fill="#D1A103" transform="matrix(6.3965877577512975,0,0,6.3965877577512975,137.7313055963915,-19.733468996031007)"><path d="M5.33 11.07L5.33 11.07L5.33 11.07Q5.33 11.76 5.48 12.22L5.48 12.22L5.48 12.22Q5.63 12.67 5.85 12.94L5.85 12.94L5.85 12.94Q6.08 13.21 6.34 13.32L6.34 13.32L6.34 13.32Q6.60 13.43 6.82 13.43L6.82 13.43L6.82 13.43Q6.99 13.43 7.14 13.39L7.14 13.39L7.14 13.39Q7.28 13.34 7.39 13.29L7.39 13.29L7.39 13.29Q7.50 13.23 7.57 13.18L7.57 13.18L7.57 13.18Q7.65 13.14 7.69 13.14L7.69 13.14L7.69 13.14Q7.75 13.14 7.78 13.16L7.78 13.16L7.78 13.16Q7.80 13.18 7.83 13.23L7.83 13.23L8.07 13.60L8.07 13.60Q8.11 13.66 8.11 13.70L8.11 13.70L8.11 13.70Q8.11 13.75 8.08 13.77L8.08 13.77L8.08 13.77Q8.05 13.80 8.03 13.82L8.03 13.82L8.03 13.82Q7.80 13.98 7.47 14.15L7.47 14.15L7.47 14.15Q7.14 14.33 6.71 14.47L6.71 14.47L6.71 14.47Q6.28 14.62 5.74 14.71L5.74 14.71L5.74 14.71Q5.21 14.81 4.58 14.81L4.58 14.81L4.58 14.81Q4.07 14.81 3.55 14.72L3.55 14.72L3.55 14.72Q3.04 14.64 2.57 14.46L2.57 14.46L2.57 14.46Q2.11 14.27 1.70 13.98L1.70 13.98L1.70 13.98Q1.30 13.69 1.00 13.28L1.00 13.28L1.00 13.28Q0.70 12.87 0.53 12.31L0.53 12.31L0.53 12.31Q0.36 11.76 0.36 11.07L0.36 11.07L0.36 11.07Q0.36 10.37 0.53 9.82L0.53 9.82L0.53 9.82Q0.70 9.27 1.00 8.86L1.00 8.86L1.00 8.86Q1.30 8.44 1.70 8.15L1.70 8.15L1.70 8.15Q2.11 7.86 2.57 7.68L2.57 7.68L2.57 7.68Q3.04 7.49 3.55 7.41L3.55 7.41L3.55 7.41Q4.07 7.33 4.58 7.33L4.58 7.33L4.58 7.33Q5.14 7.33 5.66 7.41L5.66 7.41L5.66 7.41Q6.18 7.50 6.62 7.64L6.62 7.64L6.62 7.64Q7.06 7.78 7.41 7.95L7.41 7.95L7.41 7.95Q7.77 8.11 7.98 8.28L7.98 8.28L7.98 8.28Q8.01 8.30 8.04 8.33L8.04 8.33L8.04 8.33Q8.07 8.35 8.07 8.40L8.07 8.40L8.07 8.40Q8.07 8.45 8.03 8.50L8.03 8.50L7.79 8.87L7.79 8.87Q7.76 8.92 7.73 8.94L7.73 8.94L7.73 8.94Q7.71 8.96 7.65 8.96L7.65 8.96L7.65 8.96Q7.61 8.96 7.54 8.92L7.54 8.92L7.54 8.92Q7.47 8.88 7.37 8.83L7.37 8.83L7.37 8.83Q7.27 8.78 7.13 8.73L7.13 8.73L7.13 8.73Q6.99 8.69 6.82 8.69L6.82 8.69L6.82 8.69Q6.60 8.69 6.34 8.80L6.34 8.80L6.34 8.80Q6.08 8.91 5.85 9.19L5.85 9.19L5.85 9.19Q5.63 9.46 5.48 9.92L5.48 9.92L5.48 9.92Q5.33 10.38 5.33 11.07ZM12.82 14.77L12.82 14.77L12.82 14.77Q12.31 14.77 11.80 14.68L11.80 14.68L11.80 14.68Q11.29 14.60 10.82 14.42L10.82 14.42L10.82 14.42Q10.35 14.25 9.95 13.96L9.95 13.96L9.95 13.96Q9.54 13.67 9.25 13.25L9.25 13.25L9.25 13.25Q8.95 12.84 8.78 12.29L8.78 12.29L8.78 12.29Q8.61 11.74 8.61 11.03L8.61 11.03L8.61 11.03Q8.61 10.33 8.78 9.78L8.78 9.78L8.78 9.78Q8.95 9.23 9.25 8.81L9.25 8.81L9.25 8.81Q9.54 8.39 9.95 8.10L9.95 8.10L9.95 8.10Q10.35 7.81 10.82 7.63L10.82 7.63L10.82 7.63Q11.29 7.45 11.80 7.37L11.80 7.37L11.80 7.37Q12.31 7.29 12.82 7.29L12.82 7.29L12.82 7.29Q13.30 7.29 13.79 7.35L13.79 7.35L13.79 7.35Q14.29 7.40 14.76 7.56L14.76 7.56L14.76 7.56Q15.22 7.71 15.64 7.97L15.64 7.97L15.64 7.97Q16.05 8.24 16.36 8.65L16.36 8.65L16.36 8.65Q16.67 9.06 16.85 9.63L16.85 9.63L16.85 9.63Q17.04 10.20 17.04 10.97L17.04 10.97L17.04 10.97Q17.04 11.76 16.86 12.36L16.86 12.36L16.86 12.36Q16.68 12.95 16.37 13.37L16.37 13.37L16.37 13.37Q16.06 13.79 15.65 14.06L15.65 14.06L15.65 14.06Q15.24 14.33 14.77 14.49L14.77 14.49L14.77 14.49Q14.30 14.64 13.80 14.70L13.80 14.70L13.80 14.70Q13.30 14.77 12.82 14.77ZM14.92 13.13L14.92 13.13L14.92 13.13Q15.13 13.13 15.34 13.03L15.34 13.03L15.34 13.03Q15.55 12.94 15.71 12.70L15.71 12.70L15.71 12.70Q15.87 12.46 15.97 12.04L15.97 12.04L15.97 12.04Q16.07 11.62 16.07 10.97L16.07 10.97L16.07 10.97Q16.07 10.36 15.97 9.96L15.97 9.96L15.97 9.96Q15.87 9.56 15.71 9.33L15.71 9.33L15.71 9.33Q15.54 9.11 15.34 9.02L15.34 9.02L15.34 9.02Q15.13 8.93 14.92 8.93L14.92 8.93L14.92 8.93Q14.76 8.93 14.56 9.00L14.56 9.00L14.56 9.00Q14.36 9.06 14.18 9.29L14.18 9.29L14.18 9.29Q14.01 9.51 13.89 9.92L13.89 9.92L13.89 9.92Q13.77 10.34 13.77 11.03L13.77 11.03L13.77 11.03Q13.77 11.72 13.87 12.13L13.87 12.13L13.87 12.13Q13.97 12.55 14.12 12.77L14.12 12.77L14.12 12.77Q14.28 12.99 14.49 13.06L14.49 13.06L14.49 13.06Q14.70 13.13 14.92 13.13ZM18.03 13.58L18.03 8.48L18.03 8.48Q18.03 8.24 18.07 8.06L18.07 8.06L18.07 8.06Q18.11 7.88 18.22 7.77L18.22 7.77L18.22 7.77Q18.34 7.65 18.55 7.59L18.55 7.59L18.55 7.59Q18.75 7.53 19.08 7.53L19.08 7.53L21.88 7.53L21.88 7.53Q22.18 7.53 22.40 7.59L22.40 7.59L22.40 7.59Q22.63 7.65 22.72 7.80L22.72 7.80L22.72 7.80Q22.81 7.74 22.94 7.67L22.94 7.67L22.94 7.67Q23.06 7.59 23.21 7.53L23.21 7.53L23.21 7.53Q23.37 7.47 23.54 7.43L23.54 7.43L23.54 7.43Q23.71 7.39 23.89 7.39L23.89 7.39L23.89 7.39Q24.55 7.39 24.91 7.84L24.91 7.84L24.91 7.84Q25.28 8.29 25.28 9.17L25.28 9.17L25.28 14.21L25.28 14.21Q25.28 14.32 25.25 14.39L25.25 14.39L25.25 14.39Q25.22 14.45 25.17 14.48L25.17 14.48L25.17 14.48Q25.13 14.51 25.07 14.52L25.07 14.52L25.07 14.52Q25.01 14.53 24.94 14.53L24.94 14.53L24.51 14.53L24.51 14.53Q24.33 14.53 24.28 14.42L24.28 14.42L24.28 14.42Q24.23 14.32 24.23 14.21L24.23 14.21L24.23 9.10L24.23 9.10Q24.23 8.71 24.09 8.50L24.09 8.50L24.09 8.50Q23.95 8.30 23.64 8.30L23.64 8.30L23.64 8.30Q23.48 8.30 23.32 8.38L23.32 8.38L23.32 8.38Q23.16 8.47 23.06 8.57L23.06 8.57L23.06 13.57L23.06 13.57Q23.06 13.81 23.02 13.99L23.02 13.99L23.02 13.99Q22.98 14.16 22.87 14.28L22.87 14.28L22.87 14.28Q22.75 14.40 22.54 14.46L22.54 14.46L22.54 14.46Q22.34 14.53 22.01 14.53L22.01 14.53L19.08 14.53L19.08 14.53Q18.75 14.53 18.55 14.46L18.55 14.46L18.55 14.46Q18.34 14.40 18.22 14.29L18.22 14.29L18.22 14.29Q18.11 14.17 18.07 13.99L18.07 13.99L18.07 13.99Q18.03 13.82 18.03 13.58L18.03 13.58ZM26.76 9.77L26.05 9.77L26.05 9.77Q25.91 9.77 25.91 9.62L25.91 9.62L25.91 9.07L25.91 9.07Q25.91 8.93 26.05 8.93L26.05 8.93L26.76 8.93L26.76 7.38L26.76 7.38Q26.76 7.27 26.79 7.17L26.79 7.17L26.79 7.17Q26.82 7.07 26.96 7.01L26.96 7.01L30.73 5.62L30.73 5.62Q30.99 5.52 31.17 5.48L31.17 5.48L31.17 5.48Q31.34 5.43 31.47 5.43L31.47 5.43L31.47 5.43Q31.51 5.43 31.57 5.44L31.57 5.44L31.57 5.44Q31.63 5.46 31.68 5.50L31.68 5.50L31.68 5.50Q31.73 5.54 31.77 5.62L31.77 5.62L31.77 5.62Q31.80 5.69 31.80 5.79L31.80 5.79L31.80 8.93L33.03 8.93L33.03 8.93Q33.17 8.93 33.17 9.07L33.17 9.07L33.17 9.62L33.17 9.62Q33.17 9.77 33.03 9.77L33.03 9.77L31.80 9.77L31.80 12.52L31.80 12.52Q31.80 13.01 31.96 13.21L31.96 13.21L31.96 13.21Q32.12 13.41 32.46 13.41L32.46 13.41L32.46 13.41Q32.53 13.41 32.61 13.39L32.61 13.39L32.61 13.39Q32.70 13.37 32.77 13.35L32.77 13.35L32.77 13.35Q32.84 13.34 32.90 13.32L32.90 13.32L32.90 13.32Q32.96 13.30 33.00 13.30L33.00 13.30L33.00 13.30Q33.08 13.30 33.08 13.39L33.08 13.39L33.08 13.92L33.08 13.92Q33.08 14.05 33.02 14.10L33.02 14.10L33.02 14.10Q32.97 14.15 32.93 14.16L32.93 14.16L32.93 14.16Q32.67 14.27 32.32 14.38L32.32 14.38L32.32 14.38Q31.96 14.49 31.56 14.58L31.56 14.58L31.56 14.58Q31.15 14.66 30.70 14.71L30.70 14.71L30.70 14.71Q30.25 14.77 29.80 14.77L29.80 14.77L29.80 14.77Q29.15 14.77 28.59 14.70L28.59 14.70L28.59 14.70Q28.03 14.64 27.63 14.40L27.63 14.40L27.63 14.40Q27.22 14.17 26.99 13.71L26.99 13.71L26.99 13.71Q26.76 13.25 26.76 12.47L26.76 12.47L26.76 9.77ZM40.73 14.53L37.08 14.53L37.08 14.53Q36.71 14.53 36.34 14.48L36.34 14.48L36.34 14.48Q35.96 14.43 35.63 14.32L35.63 14.32L35.63 14.32Q35.29 14.22 34.99 14.05L34.99 14.05L34.99 14.05Q34.70 13.88 34.48 13.62L34.48 13.62L34.48 13.62Q34.27 13.37 34.15 13.03L34.15 13.03L34.15 13.03Q34.02 12.69 34.02 12.24L34.02 12.24L34.02 12.24Q34.02 11.65 34.25 11.22L34.25 11.22L34.25 11.22Q34.47 10.80 34.85 10.52L34.85 10.52L34.85 10.52Q35.23 10.24 35.72 10.09L35.72 10.09L35.72 10.09Q36.22 9.94 36.74 9.90L36.74 9.90L36.74 9.43L36.74 9.43Q36.74 9.16 36.67 9.00L36.67 9.00L36.67 9.00Q36.61 8.85 36.50 8.77L36.50 8.77L36.50 8.77Q36.39 8.69 36.27 8.66L36.27 8.66L36.27 8.66Q36.14 8.64 36.03 8.64L36.03 8.64L36.03 8.64Q35.89 8.64 35.73 8.68L35.73 8.68L35.73 8.68Q35.58 8.72 35.44 8.78L35.44 8.78L35.44 8.78Q35.29 8.84 35.16 8.91L35.16 8.91L35.16 8.91Q35.03 8.98 34.95 9.03L34.95 9.03L34.95 9.03Q34.90 9.06 34.87 9.08L34.87 9.08L34.87 9.08Q34.84 9.10 34.80 9.10L34.80 9.10L34.80 9.10Q34.74 9.10 34.69 9.01L34.69 9.01L34.45 8.64L34.45 8.64Q34.42 8.59 34.42 8.54L34.42 8.54L34.42 8.54Q34.42 8.48 34.46 8.44L34.46 8.44L34.46 8.44Q34.51 8.40 34.55 8.37L34.55 8.37L34.55 8.37Q34.77 8.22 35.12 8.05L35.12 8.05L35.12 8.05Q35.47 7.89 35.91 7.76L35.91 7.76L35.91 7.76Q36.34 7.63 36.85 7.55L36.85 7.55L36.85 7.55Q37.35 7.46 37.89 7.46L37.89 7.46L37.89 7.46Q38.40 7.46 38.89 7.50L38.89 7.50L38.89 7.50Q39.38 7.53 39.82 7.65L39.82 7.65L39.82 7.65Q40.25 7.76 40.61 7.97L40.61 7.97L40.61 7.97Q40.97 8.18 41.23 8.52L41.23 8.52L41.23 8.52Q41.49 8.86 41.64 9.36L41.64 9.36L41.64 9.36Q41.78 9.86 41.78 10.55L41.78 10.55L41.78 13.60L41.78 13.60Q41.78 13.83 41.74 14.00L41.74 14.00L41.74 14.00Q41.70 14.18 41.58 14.29L41.58 14.29L41.58 14.29Q41.47 14.41 41.26 14.47L41.26 14.47L41.26 14.47Q41.06 14.53 40.73 14.53L40.73 14.53ZM36.74 13.65L36.74 10.77L36.74 10.77Q36.25 10.77 35.92 10.89L35.92 10.89L35.92 10.89Q35.58 11.01 35.38 11.22L35.38 11.22L35.38 11.22Q35.17 11.42 35.08 11.69L35.08 11.69L35.08 11.69Q34.99 11.96 34.99 12.25L34.99 12.25L34.99 12.25Q34.99 12.54 35.08 12.79L35.08 12.79L35.08 12.79Q35.17 13.05 35.38 13.24L35.38 13.24L35.38 13.24Q35.58 13.43 35.92 13.54L35.92 13.54L35.92 13.54Q36.25 13.65 36.74 13.65L36.74 13.65ZM47.74 11.07L47.74 11.07L47.74 11.07Q47.74 11.76 47.89 12.22L47.89 12.22L47.89 12.22Q48.04 12.67 48.26 12.94L48.26 12.94L48.26 12.94Q48.49 13.21 48.75 13.32L48.75 13.32L48.75 13.32Q49.01 13.43 49.23 13.43L49.23 13.43L49.23 13.43Q49.40 13.43 49.55 13.39L49.55 13.39L49.55 13.39Q49.69 13.34 49.80 13.29L49.80 13.29L49.80 13.29Q49.91 13.23 49.98 13.18L49.98 13.18L49.98 13.18Q50.06 13.14 50.10 13.14L50.10 13.14L50.10 13.14Q50.16 13.14 50.19 13.16L50.19 13.16L50.19 13.16Q50.21 13.18 50.24 13.23L50.24 13.23L50.48 13.60L50.48 13.60Q50.52 13.66 50.52 13.70L50.52 13.70L50.52 13.70Q50.52 13.75 50.49 13.77L50.49 13.77L50.49 13.77Q50.46 13.80 50.44 13.82L50.44 13.82L50.44 13.82Q50.21 13.98 49.88 14.15L49.88 14.15L49.88 14.15Q49.55 14.33 49.12 14.47L49.12 14.47L49.12 14.47Q48.69 14.62 48.15 14.71L48.15 14.71L48.15 14.71Q47.62 14.81 46.99 14.81L46.99 14.81L46.99 14.81Q46.48 14.81 45.96 14.72L45.96 14.72L45.96 14.72Q45.45 14.64 44.98 14.46L44.98 14.46L44.98 14.46Q44.52 14.27 44.11 13.98L44.11 13.98L44.11 13.98Q43.71 13.69 43.41 13.28L43.41 13.28L43.41 13.28Q43.11 12.87 42.94 12.31L42.94 12.31L42.94 12.31Q42.77 11.76 42.77 11.07L42.77 11.07L42.77 11.07Q42.77 10.37 42.94 9.82L42.94 9.82L42.94 9.82Q43.11 9.27 43.41 8.86L43.41 8.86L43.41 8.86Q43.71 8.44 44.11 8.15L44.11 8.15L44.11 8.15Q44.52 7.86 44.98 7.68L44.98 7.68L44.98 7.68Q45.45 7.49 45.96 7.41L45.96 7.41L45.96 7.41Q46.48 7.33 46.99 7.33L46.99 7.33L46.99 7.33Q47.55 7.33 48.07 7.41L48.07 7.41L48.07 7.41Q48.59 7.50 49.03 7.64L49.03 7.64L49.03 7.64Q49.47 7.78 49.82 7.95L49.82 7.95L49.82 7.95Q50.18 8.11 50.39 8.28L50.39 8.28L50.39 8.28Q50.42 8.30 50.45 8.33L50.45 8.33L50.45 8.33Q50.48 8.35 50.48 8.40L50.48 8.40L50.48 8.40Q50.48 8.45 50.44 8.50L50.44 8.50L50.20 8.87L50.20 8.87Q50.17 8.92 50.15 8.94L50.15 8.94L50.15 8.94Q50.12 8.96 50.06 8.96L50.06 8.96L50.06 8.96Q50.02 8.96 49.95 8.92L49.95 8.92L49.95 8.92Q49.88 8.88 49.78 8.83L49.78 8.83L49.78 8.83Q49.68 8.78 49.54 8.73L49.54 8.73L49.54 8.73Q49.40 8.69 49.23 8.69L49.23 8.69L49.23 8.69Q49.01 8.69 48.75 8.80L48.75 8.80L48.75 8.80Q48.49 8.91 48.26 9.19L48.26 9.19L48.26 9.19Q48.04 9.46 47.89 9.92L47.89 9.92L47.89 9.92Q47.74 10.38 47.74 11.07ZM51.51 9.77L50.80 9.77L50.80 9.77Q50.65 9.77 50.65 9.62L50.65 9.62L50.65 9.07L50.65 9.07Q50.65 8.93 50.80 8.93L50.80 8.93L51.51 8.93L51.51 7.38L51.51 7.38Q51.51 7.27 51.54 7.17L51.54 7.17L51.54 7.17Q51.57 7.07 51.71 7.01L51.71 7.01L55.48 5.62L55.48 5.62Q55.74 5.52 55.91 5.48L55.91 5.48L55.91 5.48Q56.08 5.43 56.21 5.43L56.21 5.43L56.21 5.43Q56.26 5.43 56.32 5.44L56.32 5.44L56.32 5.44Q56.38 5.46 56.43 5.50L56.43 5.50L56.43 5.50Q56.48 5.54 56.51 5.62L56.51 5.62L56.51 5.62Q56.55 5.69 56.55 5.79L56.55 5.79L56.55 8.93L57.78 8.93L57.78 8.93Q57.92 8.93 57.92 9.07L57.92 9.07L57.92 9.62L57.92 9.62Q57.92 9.77 57.78 9.77L57.78 9.77L56.55 9.77L56.55 12.52L56.55 12.52Q56.55 13.01 56.71 13.21L56.71 13.21L56.71 13.21Q56.87 13.41 57.20 13.41L57.20 13.41L57.20 13.41Q57.28 13.41 57.36 13.39L57.36 13.39L57.36 13.39Q57.44 13.37 57.51 13.35L57.51 13.35L57.51 13.35Q57.59 13.34 57.65 13.32L57.65 13.32L57.65 13.32Q57.71 13.30 57.75 13.30L57.75 13.30L57.75 13.30Q57.83 13.30 57.83 13.39L57.83 13.39L57.83 13.92L57.83 13.92Q57.83 14.05 57.77 14.10L57.77 14.10L57.77 14.10Q57.72 14.15 57.67 14.16L57.67 14.16L57.67 14.16Q57.42 14.27 57.06 14.38L57.06 14.38L57.06 14.38Q56.71 14.49 56.30 14.58L56.30 14.58L56.30 14.58Q55.90 14.66 55.45 14.71L55.45 14.71L55.45 14.71Q55.00 14.77 54.54 14.77L54.54 14.77L54.54 14.77Q53.89 14.77 53.34 14.70L53.34 14.70L53.34 14.70Q52.78 14.64 52.37 14.40L52.37 14.40L52.37 14.40Q51.97 14.17 51.74 13.71L51.74 13.71L51.74 13.71Q51.51 13.25 51.51 12.47L51.51 12.47L51.51 9.77ZM59.04 13.08L59.04 13.08L59.04 13.08Q59.04 12.76 59.16 12.47L59.16 12.47L59.16 12.47Q59.29 12.18 59.50 11.97L59.50 11.97L59.50 11.97Q59.72 11.75 60.01 11.63L60.01 11.63L60.01 11.63Q60.29 11.50 60.62 11.50L60.62 11.50L60.62 11.50Q60.95 11.50 61.24 11.63L61.24 11.63L61.24 11.63Q61.52 11.75 61.74 11.97L61.74 11.97L61.74 11.97Q61.95 12.18 62.08 12.47L62.08 12.47L62.08 12.47Q62.20 12.76 62.20 13.08L62.20 13.08L62.20 13.08Q62.20 13.41 62.08 13.70L62.08 13.70L62.08 13.70Q61.95 13.99 61.74 14.20L61.74 14.20L61.74 14.20Q61.52 14.42 61.24 14.54L61.24 14.54L61.24 14.54Q60.95 14.66 60.62 14.66L60.62 14.66L60.62 14.66Q60.29 14.66 60.01 14.54L60.01 14.54L60.01 14.54Q59.72 14.42 59.50 14.20L59.50 14.20L59.50 14.20Q59.29 13.99 59.16 13.70L59.16 13.70L59.16 13.70Q59.04 13.41 59.04 13.08ZM63.53 13.58L63.53 8.48L63.53 8.48Q63.53 8.24 63.57 8.06L63.57 8.06L63.57 8.06Q63.62 7.88 63.73 7.77L63.73 7.77L63.73 7.77Q63.85 7.65 64.05 7.59L64.05 7.59L64.05 7.59Q64.26 7.53 64.59 7.53L64.59 7.53L67.38 7.53L67.38 7.53Q67.69 7.53 67.90 7.59L67.90 7.59L67.90 7.59Q68.11 7.65 68.21 7.80L68.21 7.80L68.21 7.80Q68.30 7.73 68.43 7.66L68.43 7.66L68.43 7.66Q68.56 7.59 68.71 7.53L68.71 7.53L68.71 7.53Q68.87 7.46 69.04 7.43L69.04 7.43L69.04 7.43Q69.21 7.39 69.40 7.39L69.40 7.39L69.40 7.39Q70.03 7.39 70.39 7.81L70.39 7.81L70.39 7.81Q70.49 7.74 70.59 7.67L70.59 7.67L70.59 7.67Q70.73 7.59 70.90 7.53L70.90 7.53L70.90 7.53Q71.06 7.46 71.24 7.43L71.24 7.43L71.24 7.43Q71.43 7.39 71.61 7.39L71.61 7.39L71.61 7.39Q72.27 7.39 72.64 7.84L72.64 7.84L72.64 7.84Q73.00 8.29 73.00 9.17L73.00 9.17L73.00 14.21L73.00 14.21Q73.00 14.32 72.97 14.39L72.97 14.39L72.97 14.39Q72.94 14.45 72.89 14.48L72.89 14.48L72.89 14.48Q72.84 14.51 72.78 14.52L72.78 14.52L72.78 14.52Q72.72 14.53 72.66 14.53L72.66 14.53L72.23 14.53L72.23 14.53Q72.05 14.53 72.00 14.42L72.00 14.42L72.00 14.42Q71.95 14.32 71.95 14.21L71.95 14.21L71.95 9.10L71.95 9.10Q71.95 8.71 71.81 8.50L71.81 8.50L71.81 8.50Q71.67 8.30 71.36 8.30L71.36 8.30L71.36 8.30Q71.28 8.30 71.19 8.33L71.19 8.33L71.19 8.33Q71.10 8.36 71.01 8.41L71.01 8.41L71.01 8.41Q70.92 8.46 70.85 8.51L70.85 8.51L70.85 8.51Q70.79 8.56 70.74 8.60L70.74 8.60L70.74 8.60Q70.79 8.86 70.79 9.17L70.79 9.17L70.79 14.21L70.79 14.21Q70.79 14.32 70.76 14.39L70.76 14.39L70.76 14.39Q70.72 14.45 70.68 14.48L70.68 14.48L70.68 14.48Q70.64 14.51 70.57 14.52L70.57 14.52L70.57 14.52Q70.51 14.53 70.45 14.53L70.45 14.53L70.01 14.53L70.01 14.53Q69.84 14.53 69.78 14.42L69.78 14.42L69.78 14.42Q69.73 14.32 69.73 14.21L69.73 14.21L69.73 9.10L69.73 9.10Q69.73 8.71 69.59 8.50L69.59 8.50L69.59 8.50Q69.45 8.30 69.15 8.30L69.15 8.30L69.15 8.30Q68.99 8.30 68.83 8.38L68.83 8.38L68.83 8.38Q68.67 8.47 68.57 8.57L68.57 8.57L68.57 13.57L68.57 13.57Q68.57 13.81 68.53 13.99L68.53 13.99L68.53 13.99Q68.49 14.16 68.37 14.28L68.37 14.28L68.37 14.28Q68.26 14.40 68.05 14.46L68.05 14.46L68.05 14.46Q67.85 14.53 67.52 14.53L67.52 14.53L64.59 14.53L64.59 14.53Q64.26 14.53 64.05 14.46L64.05 14.46L64.05 14.46Q63.85 14.40 63.73 14.29L63.73 14.29L63.73 14.29Q63.62 14.17 63.57 13.99L63.57 13.99L63.57 13.99Q63.53 13.82 63.53 13.58L63.53 13.58ZM80.45 13.39L80.45 13.39L80.45 13.39Q80.64 13.39 80.79 13.34L80.79 13.34L80.79 13.34Q80.94 13.29 81.06 13.23L81.06 13.23L81.06 13.23Q81.18 13.17 81.26 13.11L81.26 13.11L81.26 13.11Q81.33 13.06 81.38 13.06L81.38 13.06L81.38 13.06Q81.44 13.06 81.46 13.08L81.46 13.08L81.46 13.08Q81.48 13.10 81.52 13.16L81.52 13.16L81.76 13.53L81.76 13.53Q81.79 13.58 81.79 13.62L81.79 13.62L81.79 13.62Q81.79 13.67 81.76 13.70L81.76 13.70L81.76 13.70Q81.74 13.73 81.71 13.75L81.71 13.75L81.71 13.75Q81.48 13.90 81.16 14.09L81.16 14.09L81.16 14.09Q80.83 14.27 80.39 14.42L80.39 14.42L80.39 14.42Q79.96 14.57 79.41 14.67L79.41 14.67L79.41 14.67Q78.87 14.77 78.21 14.77L78.21 14.77L78.21 14.77Q77.70 14.77 77.18 14.68L77.18 14.68L77.18 14.68Q76.67 14.60 76.20 14.42L76.20 14.42L76.20 14.42Q75.74 14.25 75.33 13.96L75.33 13.96L75.33 13.96Q74.93 13.67 74.63 13.25L74.63 13.25L74.63 13.25Q74.33 12.84 74.16 12.29L74.16 12.29L74.16 12.29Q73.99 11.74 73.99 11.03L73.99 11.03L73.99 11.03Q73.99 10.33 74.16 9.78L74.16 9.78L74.16 9.78Q74.33 9.23 74.63 8.81L74.63 8.81L74.63 8.81Q74.93 8.39 75.33 8.10L75.33 8.10L75.33 8.10Q75.74 7.81 76.20 7.63L76.20 7.63L76.20 7.63Q76.67 7.45 77.18 7.37L77.18 7.37L77.18 7.37Q77.70 7.29 78.21 7.29L78.21 7.29L78.21 7.29Q79.06 7.29 79.80 7.48L79.80 7.48L79.80 7.48Q80.53 7.67 81.07 8.11L81.07 8.11L81.07 8.11Q81.61 8.54 81.92 9.26L81.92 9.26L81.92 9.26Q82.23 9.97 82.23 11.00L82.23 11.00L82.23 11.38L82.23 11.38Q82.23 11.50 82.17 11.57L82.17 11.57L82.17 11.57Q82.11 11.64 81.96 11.64L81.96 11.64L79.13 11.64L79.13 11.64Q79.19 12.15 79.33 12.49L79.33 12.49L79.33 12.49Q79.47 12.82 79.65 13.03L79.65 13.03L79.65 13.03Q79.83 13.23 80.04 13.31L80.04 13.31L80.04 13.31Q80.25 13.39 80.45 13.39ZM79.11 10.80L81.26 10.80L81.26 10.80Q81.26 10.25 81.17 9.90L81.17 9.90L81.17 9.90Q81.09 9.54 80.94 9.32L80.94 9.32L80.94 9.32Q80.80 9.11 80.61 9.02L80.61 9.02L80.61 9.02Q80.41 8.93 80.20 8.93L80.20 8.93L80.20 8.93Q80.04 8.93 79.86 8.99L79.86 8.99L79.86 8.99Q79.67 9.05 79.51 9.25L79.51 9.25L79.51 9.25Q79.35 9.45 79.24 9.82L79.24 9.82L79.24 9.82Q79.13 10.19 79.11 10.80L79.11 10.80Z"></path></g><!----><g data-v-423bf9ae="" id="ae3e1d6b-2a27-47cb-8dfb-ff3468e4ee36" transform="matrix(1.6746991030587994,0,0,1.6746991030587994,-23.682096183886415,-38.68675285923068)" stroke="none" fill="#D1A103"><path d="M18.434 76.986l-1.655-.025 1.232-1.107c.04-.037 4.031-3.692 4.774-9.868-5.383-3.345-8.46-8.242-8.46-13.489 0-9.679 10.55-17.555 23.518-17.555.406 0 .81.007 1.211.022 12.507.473 22.306 8.175 22.306 17.532 0 2.182-.535 4.318-1.587 6.344-3.529 6.812-12.138 11.214-21.93 11.214-1.619 0-3.248-.128-4.851-.381-1.628 2.917-5.524 7.318-14.136 7.318-.139 0-.281-.002-.422-.005z"></path><path d="M77.499 53.303C82.682 50.206 86 45.469 86 40.156c0-9.337-10.236-16.906-22.866-16.906-9.087 0-16.398 3.541-20.085 9.218 12.523.74 21.711 8.99 21.711 18.525 0 2.078-.466 4.115-1.377 6.062a30.748 30.748 0 0 0 4.953-.439c1.541 3.004 5.335 7.525 14.194 7.38 0 0-4.384-3.921-5.031-10.693z"></path></g><!----></svg>